# This file uses centimeters as units for non-parametric coordinates.

mtllib pecera.mtl
g default
v 16.894623 0.332988 0.090541
v 16.894623 19.942902 0.090541
v 16.346283 19.942902 0.090541
v 16.346283 0.332988 0.090541
v 14.642714 0.332988 8.494789
v 14.642714 19.942902 8.494789
v 14.167839 19.942902 8.220620
v 14.167839 0.332988 8.220620
v 8.490379 0.332988 14.647128
v 8.490379 19.942902 14.647128
v 8.216209 19.942902 14.172252
v 8.216209 0.332988 14.172252
v 0.086131 0.332988 16.899042
v 0.086131 19.942902 16.899042
v 0.086131 19.942902 16.350702
v 0.086131 0.332988 16.350702
v -8.318116 0.332988 14.647134
v -8.318116 19.942902 14.647134
v -8.043946 19.942902 14.172258
v -8.043946 0.332988 14.172258
v -14.470456 0.332988 8.494801
v -14.470456 19.942902 8.494801
v -13.995579 19.942902 8.220631
v -13.995579 0.332988 8.220631
v -16.722371 0.332988 0.090556
v -16.722371 19.942902 0.090556
v -16.174032 19.942902 0.090555
v -16.174032 0.332988 0.090555
v 16.620452 10.137945 0.090541
v -16.448201 10.137945 0.090556
vt 226.194656 0.000000
vt 188.495544 84.000000
vt 188.495544 0.000000
vt 226.194656 84.000000
vt 188.495544 86.348839
vt 226.194656 86.348839
vt 188.495544 170.348846
vt 226.194656 170.348846
vt 188.495544 172.697693
vt 226.194656 172.697693
vt 150.796432 84.000000
vt 150.796432 0.000000
vt 150.796432 86.348839
vt 150.796432 170.348846
vt 150.796432 172.697693
vt 113.097328 84.000000
vt 113.097328 0.000000
vt 113.097328 86.348839
vt 113.097328 170.348846
vt 113.097328 172.697693
vt 75.398216 84.000000
vt 75.398216 0.000000
vt 75.398216 86.348839
vt 75.398216 170.348846
vt 75.398216 172.697693
vt 37.699116 84.000000
vt 37.699116 0.000000
vt 37.699116 86.348839
vt 37.699116 170.348846
vt 37.699116 172.697693
vt 0.000000 84.000000
vt 0.000000 0.000000
vt 0.000000 86.348839
vt 0.000000 170.348846
vt 0.000000 172.697693
vt 1.174423 42.000000
vt 0.000000 84.000000
vt 0.000000 0.000000
vt 2.348839 84.000000
vt 2.348839 0.000000
vt 1.174416 42.000000
vt 2.348839 0.000000
vt 2.348839 84.000000
vt 0.000000 84.000000
vt 0.000000 0.000000
vn 0.965926 0.000000 0.258819
vn 0.866026 0.000000 0.500000
vn 0.866026 0.000000 0.500000
vn 0.965926 0.000000 0.258819
vn 0.965926 0.000000 0.258819
vn 0.866026 0.000000 0.500000
vn 0.000000 1.000000 0.000000
vn 0.000000 1.000000 0.000000
vn 0.000000 1.000000 0.000000
vn 0.000000 1.000000 0.000000
vn 0.000000 1.000000 0.000000
vn 0.000000 1.000000 0.000000
vn -0.965926 0.000000 -0.258819
vn -0.866026 0.000000 -0.500000
vn -0.866026 0.000000 -0.500000
vn -0.965926 0.000000 -0.258819
vn -0.965926 0.000000 -0.258819
vn -0.866026 0.000000 -0.500000
vn 0.000000 -1.000000 0.000000
vn 0.000000 -1.000000 0.000000
vn 0.000000 -1.000000 0.000000
vn 0.000000 -1.000000 0.000000
vn 0.000000 -1.000000 0.000000
vn 0.000000 -1.000000 0.000000
vn 0.866026 0.000000 0.500000
vn 0.500000 0.000000 0.866025
vn 0.500000 0.000000 0.866025
vn 0.866026 0.000000 0.500000
vn 0.866026 0.000000 0.500000
vn 0.500000 0.000000 0.866025
vn 0.000000 1.000000 0.000000
vn 0.000000 1.000000 0.000000
vn 0.000000 1.000000 0.000000
vn 0.000000 1.000000 0.000000
vn 0.000000 1.000000 0.000000
vn 0.000000 1.000000 0.000000
vn -0.866026 0.000000 -0.500000
vn -0.500000 0.000000 -0.866025
vn -0.500000 0.000000 -0.866025
vn -0.866026 0.000000 -0.500000
vn -0.866026 0.000000 -0.500000
vn -0.500000 0.000000 -0.866025
vn 0.000000 -1.000000 0.000000
vn 0.000000 -1.000000 0.000000
vn 0.000000 -1.000000 0.000000
vn 0.000000 -1.000000 0.000000
vn 0.000000 -1.000000 0.000000
vn 0.000000 -1.000000 0.000000
vn 0.500000 0.000000 0.866025
vn 0.000000 0.000000 1.000000
vn 0.000000 0.000000 1.000000
vn 0.500000 0.000000 0.866025
vn 0.500000 0.000000 0.866025
vn 0.000000 0.000000 1.000000
vn 0.000000 1.000000 0.000000
vn 0.000000 1.000000 0.000000
vn 0.000000 1.000000 0.000000
vn 0.000000 1.000000 0.000000
vn 0.000000 1.000000 0.000000
vn 0.000000 1.000000 0.000000
vn -0.500000 0.000000 -0.866025
vn -0.000000 0.000000 -1.000000
vn -0.000000 0.000000 -1.000000
vn -0.500000 0.000000 -0.866025
vn -0.500000 0.000000 -0.866025
vn -0.000000 0.000000 -1.000000
vn 0.000000 -1.000000 0.000000
vn 0.000000 -1.000000 0.000000
vn 0.000000 -1.000000 0.000000
vn 0.000000 -1.000000 0.000000
vn 0.000000 -1.000000 0.000000
vn 0.000000 -1.000000 0.000000
vn 0.000000 0.000000 1.000000
vn -0.500000 0.000000 0.866026
vn -0.500000 0.000000 0.866026
vn 0.000000 0.000000 1.000000
vn 0.000000 0.000000 1.000000
vn -0.500000 0.000000 0.866026
vn 0.000000 1.000000 0.000000
vn 0.000000 1.000000 0.000000
vn 0.000000 1.000000 0.000000
vn 0.000000 1.000000 0.000000
vn 0.000000 1.000000 0.000000
vn 0.000000 1.000000 0.000000
vn -0.000000 0.000000 -1.000000
vn 0.500000 0.000000 -0.866026
vn 0.500000 0.000000 -0.866026
vn -0.000000 0.000000 -1.000000
vn -0.000000 0.000000 -1.000000
vn 0.500000 0.000000 -0.866026
vn 0.000000 -1.000000 0.000000
vn 0.000000 -1.000000 0.000000
vn 0.000000 -1.000000 0.000000
vn 0.000000 -1.000000 0.000000
vn 0.000000 -1.000000 0.000000
vn 0.000000 -1.000000 0.000000
vn -0.500000 0.000000 0.866026
vn -0.866025 0.000000 0.500000
vn -0.866025 0.000000 0.500000
vn -0.500000 0.000000 0.866026
vn -0.500000 0.000000 0.866026
vn -0.866025 0.000000 0.500000
vn 0.000000 1.000000 0.000000
vn 0.000000 1.000000 0.000000
vn 0.000000 1.000000 0.000000
vn 0.000000 1.000000 0.000000
vn 0.000000 1.000000 0.000000
vn 0.000000 1.000000 0.000000
vn 0.500000 0.000000 -0.866026
vn 0.866025 0.000000 -0.500000
vn 0.866025 0.000000 -0.500000
vn 0.500000 0.000000 -0.866026
vn 0.500000 0.000000 -0.866026
vn 0.866025 0.000000 -0.500000
vn 0.000000 -1.000000 0.000000
vn 0.000000 -1.000000 0.000000
vn 0.000000 -1.000000 0.000000
vn 0.000000 -1.000000 0.000000
vn 0.000000 -1.000000 0.000000
vn 0.000000 -1.000000 0.000000
vn -0.866025 0.000000 0.500000
vn -0.965926 0.000000 0.258820
vn -0.965926 0.000000 0.258820
vn -0.866025 0.000000 0.500000
vn -0.866025 0.000000 0.500000
vn -0.965926 0.000000 0.258820
vn 0.000000 1.000000 0.000000
vn 0.000000 1.000000 0.000000
vn 0.000000 1.000000 0.000000
vn 0.000000 1.000000 0.000000
vn 0.000000 1.000000 0.000000
vn 0.000000 1.000000 0.000000
vn 0.866025 0.000000 -0.500000
vn 0.965926 0.000000 -0.258820
vn 0.965926 0.000000 -0.258820
vn 0.866025 0.000000 -0.500000
vn 0.866025 0.000000 -0.500000
vn 0.965926 0.000000 -0.258820
vn 0.000000 -1.000000 0.000000
vn 0.000000 -1.000000 0.000000
vn 0.000000 -1.000000 0.000000
vn 0.000000 -1.000000 0.000000
vn 0.000000 -1.000000 0.000000
vn 0.000000 -1.000000 0.000000
vn -0.000000 0.000000 -1.000000
vn -0.000000 0.000000 -1.000000
vn -0.000000 0.000000 -1.000000
vn -0.000000 0.000000 -1.000000
vn -0.000000 0.000000 -1.000000
vn -0.000000 0.000000 -1.000000
vn -0.000000 0.000000 -1.000000
vn -0.000000 0.000000 -1.000000
vn -0.000000 0.000000 -1.000000
vn -0.000000 0.000000 -1.000000
vn -0.000000 0.000000 -1.000000
vn -0.000000 0.000000 -1.000000
vn -0.000001 0.000000 -1.000000
vn -0.000001 0.000000 -1.000000
vn -0.000001 0.000000 -1.000000
vn -0.000001 0.000000 -1.000000
vn -0.000001 0.000000 -1.000000
vn -0.000001 0.000000 -1.000000
vn -0.000001 0.000000 -1.000000
vn -0.000001 0.000000 -1.000000
vn -0.000001 0.000000 -1.000000
vn -0.000001 0.000000 -1.000000
vn -0.000001 0.000000 -1.000000
vn -0.000001 0.000000 -1.000000
s off
g pecera1:enclosure_left
usemtl lambert9SG
f 1/1/1 6/2/2 5/3/3
f 1/1/4 2/4/5 6/2/6
f 2/4/7 7/5/8 6/2/9
f 2/4/10 3/6/11 7/5/12
f 3/6/13 8/7/14 7/5/15
f 3/6/16 4/8/17 8/7/18
f 4/8/19 5/9/20 8/7/21
f 4/8/22 1/10/23 5/9/24
f 5/3/25 10/11/26 9/12/27
f 5/3/28 6/2/29 10/11/30
f 6/2/31 11/13/32 10/11/33
f 6/2/34 7/5/35 11/13/36
f 7/5/37 12/14/38 11/13/39
f 7/5/40 8/7/41 12/14/42
f 8/7/43 9/15/44 12/14/45
f 8/7/46 5/9/47 9/15/48
f 9/12/49 14/16/50 13/17/51
f 9/12/52 10/11/53 14/16/54
f 10/11/55 15/18/56 14/16/57
f 10/11/58 11/13/59 15/18/60
f 11/13/61 16/19/62 15/18/63
f 11/13/64 12/14/65 16/19/66
f 12/14/67 13/20/68 16/19/69
f 12/14/70 9/15/71 13/20/72
f 13/17/73 18/21/74 17/22/75
f 13/17/76 14/16/77 18/21/78
f 14/16/79 19/23/80 18/21/81
f 14/16/82 15/18/83 19/23/84
f 15/18/85 20/24/86 19/23/87
f 15/18/88 16/19/89 20/24/90
f 16/19/91 17/25/92 20/24/93
f 16/19/94 13/20/95 17/25/96
f 17/22/97 22/26/98 21/27/99
f 17/22/100 18/21/101 22/26/102
f 18/21/103 23/28/104 22/26/105
f 18/21/106 19/23/107 23/28/108
f 19/23/109 24/29/110 23/28/111
f 19/23/112 20/24/113 24/29/114
f 20/24/115 21/30/116 24/29/117
f 20/24/118 17/25/119 21/30/120
f 21/27/121 26/31/122 25/32/123
f 21/27/124 22/26/125 26/31/126
f 22/26/127 27/33/128 26/31/129
f 22/26/130 23/28/131 27/33/132
f 23/28/133 28/34/134 27/33/135
f 23/28/136 24/29/137 28/34/138
f 24/29/139 25/35/140 28/34/141
f 24/29/142 21/30/143 25/35/144
f 29/36/145 2/37/146 1/38/147
f 29/36/148 3/39/149 2/37/150
f 29/36/151 4/40/152 3/39/153
f 29/36/154 1/38/155 4/40/156
f 30/41/157 25/42/158 26/43/159
f 30/41/160 26/43/161 27/44/162
f 30/41/163 27/44/164 28/45/165
f 30/41/166 28/45/167 25/42/168
